<svg xmlns="http://www.w3.org/2000/svg" viewBox="0 0 414.12 129.77"><defs><style>.cls-1{opacity:0.65;}.cls-2{opacity:0.35;}.cls-3{fill:#4d4d4d;}</style></defs><title>dots</title><g id="Camada_2" data-name="Camada 2"><g id="Layer_1" data-name="Layer 1"><g class="cls-1"><g class="cls-2"><circle class="cls-3" cx="1.13" cy="128.63" r="1.13"/><circle class="cls-3" cx="1.13" cy="114.47" r="1.13"/><circle class="cls-3" cx="1.13" cy="100.3" r="1.13"/><circle class="cls-3" cx="1.13" cy="86.13" r="1.13"/><circle class="cls-3" cx="1.13" cy="71.97" r="1.13"/><circle class="cls-3" cx="1.13" cy="57.8" r="1.13"/><circle class="cls-3" cx="1.13" cy="43.63" r="1.13"/><circle class="cls-3" cx="1.13" cy="29.47" r="1.13"/><circle class="cls-3" cx="1.13" cy="15.3" r="1.13"/><circle class="cls-3" cx="1.13" cy="1.13" r="1.13"/><circle class="cls-3" cx="15.3" cy="128.63" r="1.13"/><circle class="cls-3" cx="15.3" cy="114.47" r="1.13"/><circle class="cls-3" cx="15.3" cy="100.3" r="1.13"/><circle class="cls-3" cx="15.3" cy="86.13" r="1.13"/><circle class="cls-3" cx="15.3" cy="71.97" r="1.13"/><circle class="cls-3" cx="15.3" cy="57.8" r="1.13"/><circle class="cls-3" cx="15.3" cy="43.63" r="1.13"/><circle class="cls-3" cx="15.3" cy="29.47" r="1.13"/><circle class="cls-3" cx="15.3" cy="15.3" r="1.13"/><circle class="cls-3" cx="15.3" cy="1.13" r="1.13"/><circle class="cls-3" cx="29.47" cy="128.63" r="1.13"/><circle class="cls-3" cx="29.47" cy="114.47" r="1.13"/><circle class="cls-3" cx="29.47" cy="100.3" r="1.13"/><circle class="cls-3" cx="29.47" cy="86.13" r="1.13"/><circle class="cls-3" cx="29.47" cy="71.97" r="1.13"/><circle class="cls-3" cx="29.47" cy="57.8" r="1.13"/><circle class="cls-3" cx="29.47" cy="43.63" r="1.13"/><circle class="cls-3" cx="29.47" cy="29.47" r="1.13"/><circle class="cls-3" cx="29.47" cy="15.3" r="1.13"/><circle class="cls-3" cx="29.47" cy="1.13" r="1.13"/><circle class="cls-3" cx="43.63" cy="128.63" r="1.13"/><circle class="cls-3" cx="43.63" cy="114.47" r="1.13"/><circle class="cls-3" cx="43.63" cy="100.3" r="1.13"/><circle class="cls-3" cx="43.63" cy="86.13" r="1.13"/><circle class="cls-3" cx="43.63" cy="71.97" r="1.13"/><circle class="cls-3" cx="43.63" cy="57.8" r="1.13"/><circle class="cls-3" cx="43.63" cy="43.63" r="1.13"/><circle class="cls-3" cx="43.63" cy="29.47" r="1.13"/><circle class="cls-3" cx="43.63" cy="15.3" r="1.13"/><circle class="cls-3" cx="43.63" cy="1.13" r="1.13"/><circle class="cls-3" cx="57.8" cy="128.63" r="1.13"/><circle class="cls-3" cx="57.8" cy="114.47" r="1.13"/><circle class="cls-3" cx="57.8" cy="100.3" r="1.13"/><circle class="cls-3" cx="57.8" cy="86.13" r="1.13"/><circle class="cls-3" cx="57.8" cy="71.97" r="1.13"/><circle class="cls-3" cx="57.8" cy="57.8" r="1.13"/><circle class="cls-3" cx="57.8" cy="43.63" r="1.13"/><circle class="cls-3" cx="57.8" cy="29.47" r="1.13"/><circle class="cls-3" cx="57.8" cy="15.3" r="1.13"/><circle class="cls-3" cx="57.8" cy="1.13" r="1.13"/><circle class="cls-3" cx="71.97" cy="128.63" r="1.13"/><circle class="cls-3" cx="71.97" cy="114.47" r="1.13"/><circle class="cls-3" cx="71.97" cy="100.3" r="1.13"/><circle class="cls-3" cx="71.97" cy="86.13" r="1.13"/><circle class="cls-3" cx="71.97" cy="71.97" r="1.13"/><circle class="cls-3" cx="71.97" cy="57.8" r="1.13"/><circle class="cls-3" cx="71.97" cy="43.63" r="1.13"/><circle class="cls-3" cx="71.97" cy="29.47" r="1.13"/><circle class="cls-3" cx="71.97" cy="15.3" r="1.13"/><circle class="cls-3" cx="71.97" cy="1.13" r="1.13"/><circle class="cls-3" cx="86.13" cy="128.63" r="1.13"/><circle class="cls-3" cx="86.13" cy="114.47" r="1.13"/><circle class="cls-3" cx="86.13" cy="100.3" r="1.13"/><circle class="cls-3" cx="86.13" cy="86.13" r="1.13"/><circle class="cls-3" cx="86.13" cy="71.97" r="1.13"/><circle class="cls-3" cx="86.13" cy="57.8" r="1.13"/><circle class="cls-3" cx="86.13" cy="43.63" r="1.13"/><circle class="cls-3" cx="86.13" cy="29.47" r="1.13"/><circle class="cls-3" cx="86.13" cy="15.3" r="1.13"/><circle class="cls-3" cx="86.13" cy="1.13" r="1.13"/><circle class="cls-3" cx="100.3" cy="128.63" r="1.13"/><circle class="cls-3" cx="100.3" cy="114.47" r="1.13"/><circle class="cls-3" cx="100.3" cy="100.3" r="1.13"/><circle class="cls-3" cx="100.3" cy="86.13" r="1.13"/><circle class="cls-3" cx="100.3" cy="71.97" r="1.13"/><circle class="cls-3" cx="100.3" cy="57.8" r="1.13"/><circle class="cls-3" cx="100.3" cy="43.63" r="1.13"/><circle class="cls-3" cx="100.3" cy="29.47" r="1.13"/><circle class="cls-3" cx="100.3" cy="15.3" r="1.13"/><circle class="cls-3" cx="100.3" cy="1.13" r="1.13"/><circle class="cls-3" cx="114.47" cy="128.63" r="1.13"/><circle class="cls-3" cx="114.47" cy="114.47" r="1.13"/><circle class="cls-3" cx="114.47" cy="100.3" r="1.13"/><circle class="cls-3" cx="114.47" cy="86.13" r="1.13"/><circle class="cls-3" cx="114.47" cy="71.97" r="1.13"/><circle class="cls-3" cx="114.47" cy="57.8" r="1.13"/><circle class="cls-3" cx="114.47" cy="43.63" r="1.13"/><circle class="cls-3" cx="114.47" cy="29.47" r="1.13"/><circle class="cls-3" cx="114.47" cy="15.3" r="1.13"/><circle class="cls-3" cx="114.47" cy="1.13" r="1.13"/><circle class="cls-3" cx="128.63" cy="128.63" r="1.13"/><circle class="cls-3" cx="128.63" cy="114.47" r="1.13"/><circle class="cls-3" cx="128.63" cy="100.3" r="1.13"/><circle class="cls-3" cx="128.63" cy="86.13" r="1.13"/><circle class="cls-3" cx="128.63" cy="71.97" r="1.13"/><circle class="cls-3" cx="128.63" cy="57.8" r="1.13"/><circle class="cls-3" cx="128.63" cy="43.63" r="1.13"/><circle class="cls-3" cx="128.63" cy="29.47" r="1.13"/><circle class="cls-3" cx="128.63" cy="15.3" r="1.13"/><circle class="cls-3" cx="128.63" cy="1.13" r="1.13"/><circle class="cls-3" cx="142.8" cy="128.63" r="1.13"/><circle class="cls-3" cx="142.8" cy="114.47" r="1.13"/><circle class="cls-3" cx="142.8" cy="100.3" r="1.13"/><circle class="cls-3" cx="142.8" cy="86.13" r="1.13"/><circle class="cls-3" cx="142.8" cy="71.97" r="1.13"/><circle class="cls-3" cx="142.8" cy="57.8" r="1.13"/><circle class="cls-3" cx="142.8" cy="43.63" r="1.13"/><circle class="cls-3" cx="142.8" cy="29.47" r="1.13"/><circle class="cls-3" cx="142.8" cy="15.3" r="1.13"/><circle class="cls-3" cx="142.8" cy="1.13" r="1.13"/><circle class="cls-3" cx="156.97" cy="128.63" r="1.13"/><circle class="cls-3" cx="156.97" cy="114.47" r="1.13"/><circle class="cls-3" cx="156.97" cy="100.3" r="1.13"/><circle class="cls-3" cx="156.97" cy="86.13" r="1.13"/><circle class="cls-3" cx="156.97" cy="71.97" r="1.13"/><circle class="cls-3" cx="156.97" cy="57.8" r="1.13"/><circle class="cls-3" cx="156.97" cy="43.63" r="1.13"/><circle class="cls-3" cx="156.97" cy="29.47" r="1.13"/><circle class="cls-3" cx="156.97" cy="15.3" r="1.13"/><circle class="cls-3" cx="156.97" cy="1.13" r="1.13"/><circle class="cls-3" cx="171.13" cy="128.63" r="1.13"/><circle class="cls-3" cx="171.13" cy="114.47" r="1.13"/><circle class="cls-3" cx="171.13" cy="100.3" r="1.13"/><circle class="cls-3" cx="171.13" cy="86.13" r="1.13"/><circle class="cls-3" cx="171.13" cy="71.97" r="1.13"/><circle class="cls-3" cx="171.13" cy="57.8" r="1.13"/><circle class="cls-3" cx="171.13" cy="43.63" r="1.13"/><circle class="cls-3" cx="171.13" cy="29.47" r="1.13"/><circle class="cls-3" cx="171.13" cy="15.3" r="1.13"/><circle class="cls-3" cx="171.13" cy="1.13" r="1.13"/><circle class="cls-3" cx="185.3" cy="128.63" r="1.13"/><circle class="cls-3" cx="185.3" cy="114.47" r="1.13"/><circle class="cls-3" cx="185.3" cy="100.3" r="1.13"/><circle class="cls-3" cx="185.3" cy="86.13" r="1.13"/><circle class="cls-3" cx="185.3" cy="71.97" r="1.13"/><circle class="cls-3" cx="185.3" cy="57.8" r="1.13"/><circle class="cls-3" cx="185.3" cy="43.63" r="1.13"/><circle class="cls-3" cx="185.3" cy="29.47" r="1.13"/><circle class="cls-3" cx="185.3" cy="15.3" r="1.13"/><circle class="cls-3" cx="185.3" cy="1.13" r="1.13"/><circle class="cls-3" cx="199.47" cy="128.63" r="1.13"/><circle class="cls-3" cx="199.47" cy="114.47" r="1.13"/><circle class="cls-3" cx="199.47" cy="100.3" r="1.13"/><circle class="cls-3" cx="199.47" cy="86.13" r="1.13"/><circle class="cls-3" cx="199.47" cy="71.97" r="1.13"/><circle class="cls-3" cx="199.47" cy="57.8" r="1.13"/><circle class="cls-3" cx="199.47" cy="43.63" r="1.13"/><circle class="cls-3" cx="199.47" cy="29.47" r="1.13"/><circle class="cls-3" cx="199.47" cy="15.3" r="1.13"/><circle class="cls-3" cx="199.47" cy="1.13" r="1.13"/></g><g class="cls-2"><circle class="cls-3" cx="214.65" cy="128.63" r="1.13"/><circle class="cls-3" cx="214.65" cy="114.47" r="1.13"/><circle class="cls-3" cx="214.65" cy="100.3" r="1.13"/><circle class="cls-3" cx="214.65" cy="86.13" r="1.13"/><circle class="cls-3" cx="214.65" cy="71.97" r="1.13"/><circle class="cls-3" cx="214.65" cy="57.8" r="1.13"/><circle class="cls-3" cx="214.65" cy="43.63" r="1.13"/><circle class="cls-3" cx="214.65" cy="29.47" r="1.13"/><circle class="cls-3" cx="214.65" cy="15.3" r="1.13"/><circle class="cls-3" cx="214.65" cy="1.13" r="1.13"/><circle class="cls-3" cx="228.82" cy="128.63" r="1.13"/><circle class="cls-3" cx="228.82" cy="114.47" r="1.13"/><circle class="cls-3" cx="228.82" cy="100.3" r="1.13"/><circle class="cls-3" cx="228.82" cy="86.13" r="1.13"/><circle class="cls-3" cx="228.82" cy="71.97" r="1.13"/><circle class="cls-3" cx="228.82" cy="57.8" r="1.13"/><circle class="cls-3" cx="228.82" cy="43.63" r="1.13"/><circle class="cls-3" cx="228.82" cy="29.47" r="1.13"/><circle class="cls-3" cx="228.82" cy="15.3" r="1.13"/><circle class="cls-3" cx="228.82" cy="1.13" r="1.13"/><circle class="cls-3" cx="242.99" cy="128.63" r="1.13"/><circle class="cls-3" cx="242.99" cy="114.47" r="1.13"/><circle class="cls-3" cx="242.99" cy="100.3" r="1.13"/><circle class="cls-3" cx="242.99" cy="86.13" r="1.13"/><circle class="cls-3" cx="242.99" cy="71.97" r="1.13"/><circle class="cls-3" cx="242.99" cy="57.8" r="1.13"/><circle class="cls-3" cx="242.99" cy="43.63" r="1.13"/><circle class="cls-3" cx="242.99" cy="29.47" r="1.13"/><circle class="cls-3" cx="242.99" cy="15.3" r="1.13"/><circle class="cls-3" cx="242.99" cy="1.13" r="1.13"/><circle class="cls-3" cx="257.15" cy="128.63" r="1.13"/><circle class="cls-3" cx="257.15" cy="114.47" r="1.13"/><circle class="cls-3" cx="257.15" cy="100.3" r="1.13"/><circle class="cls-3" cx="257.15" cy="86.13" r="1.13"/><circle class="cls-3" cx="257.15" cy="71.97" r="1.13"/><circle class="cls-3" cx="257.15" cy="57.8" r="1.13"/><circle class="cls-3" cx="257.15" cy="43.63" r="1.13"/><circle class="cls-3" cx="257.15" cy="29.47" r="1.13"/><circle class="cls-3" cx="257.15" cy="15.3" r="1.13"/><circle class="cls-3" cx="257.15" cy="1.13" r="1.13"/><circle class="cls-3" cx="271.32" cy="128.63" r="1.13"/><circle class="cls-3" cx="271.32" cy="114.47" r="1.13"/><circle class="cls-3" cx="271.32" cy="100.3" r="1.13"/><circle class="cls-3" cx="271.32" cy="86.13" r="1.13"/><circle class="cls-3" cx="271.32" cy="71.97" r="1.13"/><circle class="cls-3" cx="271.32" cy="57.8" r="1.13"/><circle class="cls-3" cx="271.32" cy="43.63" r="1.13"/><circle class="cls-3" cx="271.32" cy="29.47" r="1.13"/><circle class="cls-3" cx="271.32" cy="15.3" r="1.13"/><circle class="cls-3" cx="271.32" cy="1.13" r="1.13"/><circle class="cls-3" cx="285.49" cy="128.63" r="1.13"/><circle class="cls-3" cx="285.49" cy="114.47" r="1.13"/><circle class="cls-3" cx="285.49" cy="100.3" r="1.13"/><circle class="cls-3" cx="285.49" cy="86.13" r="1.13"/><circle class="cls-3" cx="285.49" cy="71.97" r="1.13"/><circle class="cls-3" cx="285.49" cy="57.8" r="1.13"/><circle class="cls-3" cx="285.49" cy="43.63" r="1.13"/><circle class="cls-3" cx="285.49" cy="29.47" r="1.13"/><circle class="cls-3" cx="285.49" cy="15.3" r="1.13"/><circle class="cls-3" cx="285.49" cy="1.13" r="1.13"/><circle class="cls-3" cx="299.65" cy="128.63" r="1.13"/><circle class="cls-3" cx="299.65" cy="114.47" r="1.13"/><circle class="cls-3" cx="299.65" cy="100.3" r="1.13"/><circle class="cls-3" cx="299.65" cy="86.13" r="1.13"/><circle class="cls-3" cx="299.65" cy="71.97" r="1.13"/><circle class="cls-3" cx="299.65" cy="57.8" r="1.13"/><circle class="cls-3" cx="299.65" cy="43.63" r="1.13"/><circle class="cls-3" cx="299.65" cy="29.47" r="1.13"/><circle class="cls-3" cx="299.65" cy="15.3" r="1.13"/><circle class="cls-3" cx="299.65" cy="1.13" r="1.13"/><circle class="cls-3" cx="313.82" cy="128.63" r="1.13"/><circle class="cls-3" cx="313.82" cy="114.47" r="1.13"/><circle class="cls-3" cx="313.82" cy="100.3" r="1.13"/><circle class="cls-3" cx="313.82" cy="86.13" r="1.13"/><circle class="cls-3" cx="313.82" cy="71.97" r="1.13"/><circle class="cls-3" cx="313.82" cy="57.8" r="1.13"/><circle class="cls-3" cx="313.82" cy="43.63" r="1.13"/><circle class="cls-3" cx="313.82" cy="29.47" r="1.13"/><circle class="cls-3" cx="313.82" cy="15.3" r="1.13"/><circle class="cls-3" cx="313.82" cy="1.13" r="1.13"/><circle class="cls-3" cx="327.99" cy="128.63" r="1.13"/><circle class="cls-3" cx="327.99" cy="114.47" r="1.13"/><circle class="cls-3" cx="327.99" cy="100.3" r="1.13"/><circle class="cls-3" cx="327.99" cy="86.13" r="1.13"/><circle class="cls-3" cx="327.99" cy="71.97" r="1.13"/><circle class="cls-3" cx="327.99" cy="57.8" r="1.13"/><circle class="cls-3" cx="327.99" cy="43.63" r="1.13"/><circle class="cls-3" cx="327.99" cy="29.47" r="1.13"/><circle class="cls-3" cx="327.99" cy="15.3" r="1.13"/><circle class="cls-3" cx="327.99" cy="1.13" r="1.13"/><circle class="cls-3" cx="342.15" cy="128.63" r="1.13"/><circle class="cls-3" cx="342.15" cy="114.47" r="1.13"/><circle class="cls-3" cx="342.15" cy="100.3" r="1.13"/><circle class="cls-3" cx="342.15" cy="86.13" r="1.13"/><circle class="cls-3" cx="342.15" cy="71.97" r="1.13"/><circle class="cls-3" cx="342.15" cy="57.8" r="1.13"/><circle class="cls-3" cx="342.15" cy="43.63" r="1.13"/><circle class="cls-3" cx="342.15" cy="29.47" r="1.13"/><circle class="cls-3" cx="342.15" cy="15.3" r="1.13"/><circle class="cls-3" cx="342.15" cy="1.13" r="1.13"/><circle class="cls-3" cx="356.32" cy="128.63" r="1.13"/><circle class="cls-3" cx="356.32" cy="114.47" r="1.13"/><circle class="cls-3" cx="356.32" cy="100.3" r="1.13"/><circle class="cls-3" cx="356.32" cy="86.13" r="1.13"/><circle class="cls-3" cx="356.32" cy="71.97" r="1.13"/><circle class="cls-3" cx="356.32" cy="57.8" r="1.13"/><circle class="cls-3" cx="356.32" cy="43.63" r="1.13"/><circle class="cls-3" cx="356.32" cy="29.47" r="1.13"/><circle class="cls-3" cx="356.32" cy="15.3" r="1.13"/><circle class="cls-3" cx="356.32" cy="1.13" r="1.13"/><circle class="cls-3" cx="370.49" cy="128.63" r="1.13"/><circle class="cls-3" cx="370.49" cy="114.47" r="1.13"/><circle class="cls-3" cx="370.49" cy="100.3" r="1.13"/><circle class="cls-3" cx="370.49" cy="86.13" r="1.13"/><circle class="cls-3" cx="370.49" cy="71.97" r="1.13"/><circle class="cls-3" cx="370.49" cy="57.8" r="1.13"/><circle class="cls-3" cx="370.49" cy="43.63" r="1.13"/><circle class="cls-3" cx="370.49" cy="29.47" r="1.13"/><circle class="cls-3" cx="370.49" cy="15.3" r="1.13"/><circle class="cls-3" cx="370.49" cy="1.13" r="1.13"/><circle class="cls-3" cx="384.65" cy="128.63" r="1.13"/><circle class="cls-3" cx="384.65" cy="114.47" r="1.13"/><circle class="cls-3" cx="384.65" cy="100.3" r="1.13"/><circle class="cls-3" cx="384.65" cy="86.13" r="1.13"/><circle class="cls-3" cx="384.65" cy="71.97" r="1.13"/><circle class="cls-3" cx="384.65" cy="57.8" r="1.13"/><circle class="cls-3" cx="384.65" cy="43.63" r="1.13"/><circle class="cls-3" cx="384.65" cy="29.47" r="1.13"/><circle class="cls-3" cx="384.65" cy="15.3" r="1.13"/><circle class="cls-3" cx="384.65" cy="1.13" r="1.13"/><circle class="cls-3" cx="398.82" cy="128.63" r="1.13"/><circle class="cls-3" cx="398.82" cy="114.47" r="1.13"/><circle class="cls-3" cx="398.82" cy="100.3" r="1.13"/><circle class="cls-3" cx="398.82" cy="86.13" r="1.13"/><circle class="cls-3" cx="398.82" cy="71.97" r="1.13"/><circle class="cls-3" cx="398.82" cy="57.8" r="1.13"/><circle class="cls-3" cx="398.82" cy="43.63" r="1.13"/><circle class="cls-3" cx="398.82" cy="29.47" r="1.13"/><circle class="cls-3" cx="398.82" cy="15.3" r="1.13"/><circle class="cls-3" cx="398.82" cy="1.13" r="1.13"/><circle class="cls-3" cx="412.99" cy="128.63" r="1.13"/><circle class="cls-3" cx="412.99" cy="114.47" r="1.13"/><circle class="cls-3" cx="412.99" cy="100.3" r="1.13"/><circle class="cls-3" cx="412.99" cy="86.13" r="1.13"/><circle class="cls-3" cx="412.99" cy="71.97" r="1.13"/><circle class="cls-3" cx="412.99" cy="57.8" r="1.13"/><circle class="cls-3" cx="412.99" cy="43.63" r="1.13"/><circle class="cls-3" cx="412.99" cy="29.47" r="1.13"/><circle class="cls-3" cx="412.99" cy="15.3" r="1.13"/><circle class="cls-3" cx="412.99" cy="1.13" r="1.13"/></g></g></g></g></svg>